<?xml version="1.0" encoding="utf-8" ?>
<svg xmlns="http://www.w3.org/2000/svg" xmlns:xlink="http://www.w3.org/1999/xlink" width="1536" height="1024">
	<path fill="#446C30" d="M1117.75 175.165C1130.64 174.262 1143.55 174.928 1156.16 177.872C1183.8 184.558 1207.69 201.858 1222.68 226.031C1237.37 249.935 1242.04 278.668 1235.68 305.995C1232.27 320.419 1225.55 333.832 1216.69 345.675C1197.4 371.487 1171.31 392.703 1148.27 415.121L1111.23 451.243C1099.37 462.786 1087.6 475.35 1073.42 484.083C1048.31 499.549 1018.18 502.926 989.795 496.13C989.971 508.578 991.621 527.332 988.873 539.181C988.414 541.161 987.168 542.397 985.172 542.828C981.531 543.614 976.892 542.886 973.138 542.727C956.774 542.036 941.802 542.646 927.061 550.962C892.112 570.679 896.625 616.655 896.455 650.795L896.204 714.116C896.206 725.678 897.459 738.018 894.397 749.262C884.789 753.206 874.976 750.8 864.903 751.581C853.654 751.949 841.881 753.073 831.052 749.446C830.443 746.759 829.964 744.066 829.714 741.319C828.726 730.497 829.519 719.227 829.546 708.356L829.601 647.8L829.862 551.863C829.879 536.172 829.17 520.407 829.786 504.728C829.922 501.267 830.263 489.436 832.57 487.061C836.637 482.871 871.475 483.685 879.079 483.858C883.236 483.953 887.668 485.003 890.507 488.282C897.001 495.782 894.139 514.142 893.846 523.58C895.074 521.447 896.325 519.327 897.599 517.222C911.178 495.097 933.041 486.129 957.017 480.382C955.109 479.221 953.237 478.001 951.404 476.726C929.236 461.118 914.286 437.239 909.929 410.477C905.588 384.423 911.871 357.716 927.371 336.331C935.445 325.187 945.874 315.775 955.612 306.116L994.822 267.035C1007.61 254.033 1020.28 240.914 1032.83 227.681C1044.87 215.013 1056.65 201.277 1071.28 191.507C1085.62 181.935 1100.94 177.879 1117.75 175.165Z"/>
	<path fill="#FEF3D3" d="M990.491 300.622C992.43 300.734 993.615 301.437 995.154 302.605C1000.88 306.948 1005.92 312.599 1011.02 317.662L1037.48 344.023C1059.81 366.321 1083.13 388.138 1104.71 411.15C1106.56 413.126 1110.61 416.876 1110.94 419.467L1111.79 420.037C1111.96 421.597 1111.16 422.782 1110.32 424.075C1104.44 433.11 1072.92 459.781 1063.36 466.062C1057.79 469.717 1052.16 472.838 1045.62 474.349C1038.55 479.57 1022.88 479.882 1014.13 479.635C989.725 478.947 967.136 466.963 950.585 449.414C935.387 433.302 928.326 413.189 929.006 391.157C929.893 362.421 945.798 344.346 964.991 325.3C973.36 316.94 981.861 308.713 990.491 300.622Z"/>
	<path fill="#446C30" d="M1167.45 477.477C1184.87 475.713 1203.99 476.841 1221.12 480.475C1246.13 485.781 1269.39 498.552 1283.49 520.468C1290.62 531.558 1294.86 544.032 1296.87 557.009C1299.13 571.579 1298.72 587.068 1298.87 601.797L1299.03 671.691C1299.04 687.945 1300.56 730.886 1297.43 744.507C1297.11 745.9 1296.57 747.354 1295.3 748.128C1287.32 752.981 1253.96 753.14 1244.55 750.459C1233.51 747.313 1241.66 725.316 1236.68 717.63C1236.5 717.352 1236.29 717.092 1236.1 716.823C1235.36 719.736 1232.7 722.403 1230.63 724.477C1208.21 746.924 1177.28 756.195 1146.17 756.324C1121.81 756.424 1089.84 751.876 1071.95 733.813C1065.94 727.748 1062.5 719.235 1056.62 713.559C1056.51 713.449 1056.39 713.344 1056.27 713.236C1056.23 712.273 1056.35 712.608 1055.97 711.871C1050.56 701.495 1048.08 684.073 1048.38 672.477C1048.92 652.212 1055.8 632.829 1070.88 618.776C1106.6 585.48 1185.19 588.67 1231.02 589.992C1231.45 589.38 1231.55 589.297 1231.84 588.714C1235.19 581.885 1232.21 567.788 1229.81 560.773C1226.32 550.556 1218.98 542.874 1209.28 538.282C1191.93 530.073 1154.93 529.318 1139.43 541.879C1133.91 546.353 1127.38 562.711 1123.37 563.916C1113.53 566.876 1076.42 565.505 1067.76 560.64C1067.13 559.653 1066.76 558.914 1066.61 557.734C1064.78 543.277 1077.18 524.676 1085.97 513.698C1106.49 488.058 1136.42 480.898 1167.45 477.477ZM1150.67 705.622C1171.66 707.631 1193.42 705.154 1210.28 691.176C1223.1 680.548 1229.86 664.979 1231.22 648.591C1231.61 643.93 1232.84 635.053 1230.15 631.186C1221.34 628.486 1205.38 630.367 1195.86 630.529C1173.94 631.259 1141.61 630.979 1125.62 648.39C1119.45 655.11 1115.59 664.188 1116.03 673.394C1116.44 681.957 1120.55 689.923 1126.91 695.593C1133.33 701.318 1142.33 704.076 1150.67 705.622Z"/>
	<path fill="#446C30" d="M321.943 385.18C359.082 381.651 407.344 396.087 437.43 417.831C446.435 424.339 470.559 444.856 471.803 455.706C472.094 458.244 471.249 460.828 469.637 462.795C463.789 469.932 436.907 495.487 428.28 496.044C423.876 496.329 406.464 475.057 402.105 471.29C380.719 452.808 353.83 445.015 325.831 447.143C297.707 449.282 272.211 461.327 253.757 482.841C229.961 510.583 221.822 548.769 224.645 584.523C227.198 616.864 239.08 648.892 264.343 670.266C286.722 688.949 315.603 697.978 344.636 695.366C372.878 692.989 400.708 678.811 419.002 657.061C421.916 653.844 425.779 648.519 430.568 648.574C437.394 648.653 469.158 677.151 474.357 682.849C472.007 690.915 466.911 697.838 461.552 704.188C433.061 737.943 390.175 754.28 346.998 757.877C298.644 761.906 246.807 748.213 209.544 716.479C171.763 684.304 153.206 637.729 149.453 589.031C145.481 537.495 159.497 485.066 193.457 445.502C226.566 406.929 272.134 388.967 321.943 385.18Z"/>
	<path fill="#446C30" d="M538.979 484.213C551.137 483.767 565.797 482.337 577.664 484.984C581.003 485.729 582.835 486.79 584.053 490.093C587.556 499.595 584.753 515.148 584.502 525.36C583.913 549.32 584.368 573.349 584.273 597.318C584.201 615.292 582.668 633.798 585.304 651.638C586.63 660.615 589.273 669.645 594.148 677.367C600.694 687.736 610.729 694.244 622.62 696.899C639.954 700.771 660.749 697.454 675.673 687.684C687.351 680.039 695.084 668.554 699.099 655.301C705.749 633.353 702.982 604.258 702.817 581.24C702.802 562.559 702.69 543.879 702.48 525.199C702.282 514.705 700.558 501.914 702.847 491.728C703.249 489.943 703.818 487.94 705.483 486.959C714.434 481.69 757.419 484.073 768.359 486.715C770.892 499.184 770.173 513.388 770.288 526.082C770.421 550.976 770.382 575.871 770.172 600.765C770.155 619.256 772.264 742.273 767.021 749.251C765.507 751.266 759.897 751.536 757.602 751.673C748.046 752.245 714.231 753.564 707.863 747.282C702.821 742.308 704.84 718.34 704.819 710.39C701.495 715.614 697.859 720.741 693.69 725.328C674.895 746.007 648.327 754.683 621.094 755.977C594.556 757.238 565.174 750.68 545.2 732.261C523.72 712.454 518.07 683.701 516.961 655.812C515.702 624.148 516.799 592.133 516.772 560.422L516.696 518.783C516.68 511.321 516.272 503.638 516.91 496.205C517.17 493.181 517.567 489.735 519.847 487.506C524.198 483.254 533.322 484.3 538.979 484.213Z"/>
</svg>
