<?xml version="1.0" encoding="utf-8" ?>
<svg xmlns="http://www.w3.org/2000/svg" xmlns:xlink="http://www.w3.org/1999/xlink" width="1024" height="1024">
	<path fill="#622B29" d="M705.808 391.221C714.951 390.941 724.145 391.436 733.298 391.451L796.86 391.47C809.477 391.454 822.094 391.509 834.711 391.636C842.582 391.648 850.506 391.032 858.328 392.2C865.113 393.212 871.21 395.547 876.486 400.003C885.145 407.317 888.283 417.016 889.241 428.017C890.271 439.842 889.886 451.857 889.892 463.718L889.912 518.491L889.921 556.867C889.928 565.724 890.459 575.113 889.099 583.865C887.887 591.657 885.057 598.956 879.926 605.016C871.289 615.218 859.132 617.902 846.38 618.912C835.657 619.233 824.867 618.968 814.135 618.952L755.31 618.873L726.72 618.921C716.589 619.018 706.362 619.447 696.317 617.819C689.095 616.65 682.27 613.89 676.709 609.068C665.844 599.647 662.978 587.245 661.978 573.472C661.466 566.427 661.976 559.255 661.99 552.185L662.029 508.561L662.151 456.497C662.188 445.352 661.468 433.352 663.434 422.367C664.652 415.741 667.682 409.582 672.189 404.574C681.152 394.418 692.847 392.074 705.808 391.221ZM724.546 544.915C750.819 497.722 782.988 459.427 825.561 426.124L826.396 426.054C807.679 448.231 787.766 468.929 770.916 492.693C763.421 503.228 756.161 513.928 749.141 524.785C742.95 534.412 735.735 548.249 727.566 556.137L722.899 557.297C710.531 573.191 705.006 580.608 699.549 600.311C707.091 595.497 717.906 590.232 722.98 582.794C725.177 579.574 726.515 575.876 727.972 572.284C730.076 567.101 732.025 561.556 734.702 556.651C751.868 549.276 771.24 547.856 784.427 533.11C777.983 534.005 770.647 533.052 764.119 532.803C794.647 524.119 809.648 510.116 824.812 482.983C817.628 483.909 810.356 483.822 803.157 484.593C818.899 478.153 829.933 471.267 836.677 455.254C840.7 445.704 848.503 419.292 846.628 409.098L845.997 408.482L844.11 408.566C800.539 420.572 757.388 450.336 734.964 490.042C725.381 507.01 722.653 525.651 724.546 544.915Z"/>
	<path fill="#622B29" d="M556.625 392.143C563.199 392.348 569.856 392.075 576.437 392.012C576.862 407.935 576.919 423.691 576.982 439.616C577.038 453.873 579.339 482.599 573.036 495.289C570.782 499.829 567.168 502.266 562.398 503.792C552.265 507.031 539.762 506.263 529.333 505.171C525.651 504.786 521.832 504.036 518.135 503.968C514.244 503.896 510.08 505.177 506.218 505.743C496.299 507.197 486.005 505.066 477.17 500.476C476.243 501.159 475.286 501.834 474.299 502.427C461.86 509.893 424.006 505.098 410.076 501.54C404.099 503.46 398.252 504.43 392.004 505.023C375.491 506.591 358.84 505.976 342.278 506.161C329.57 506.302 316.421 507.274 303.749 506.229C300.786 505.985 298.218 505.484 295.418 504.475C293.698 512.453 291.491 519.7 285.892 525.885C276.775 535.956 264.011 537.183 251.243 537.921C251.04 531.127 251.007 524.329 251.144 517.533C256.046 517.643 261.49 517.826 266.069 515.835C269.498 514.344 271.837 511.911 273.331 508.5C277.553 498.861 276.244 470.151 275.795 458.816C275.607 454.079 274.437 447.463 276.28 442.995C277.62 442.021 278.25 442.215 279.875 442.18C285.402 442.194 290.96 442.328 296.482 442.073C295.497 454.321 295.489 467.788 296.651 480.048C297.461 481.379 298.268 482.692 299.467 483.715C301.301 485.281 303.606 485.561 305.925 485.772C314.392 486.541 323.526 485.575 332.083 485.518C349.172 485.403 366.956 486.165 383.949 484.551C379.935 473.89 378.19 462.885 382.6 452.009C385.594 444.474 391.529 438.483 399.036 435.419C406.263 432.438 415.095 431.895 422.322 435.106C429.606 438.342 434.568 444.933 437.275 452.251C441.585 463.905 439.532 474.134 434.563 485.14C442.876 485.932 455.721 487.325 463.148 483.013C470.386 478.812 470.098 465.745 472.243 458.406C474.573 450.432 479.301 444.182 486.646 440.207C494.116 436.165 503.57 434.879 511.74 437.399C518.436 439.465 523.792 444.249 526.927 450.479C532.62 461.794 530.212 473.166 526.231 484.519C529.352 484.929 532.495 485.139 535.635 485.35C540.356 485.666 549.87 486.677 553.362 482.828C555.308 480.683 555.947 475.421 556.244 472.553C557.797 457.546 556.872 441.653 556.891 426.541C556.905 415.339 557.834 403.248 556.625 392.143ZM501.062 483.846C505.969 481.655 510.254 478.9 512.216 473.595C513.401 470.392 513.344 466.615 511.839 463.523C510.429 460.625 507.947 458.759 504.915 457.783C502.793 457.099 500.783 456.966 498.574 457.023C493.287 459.435 489.147 463.069 487.189 468.699C486.093 471.849 485.954 475.654 487.443 478.711C488.169 480.2 489.39 481.39 490.527 482.569C494.154 483.667 497.228 484.3 501.062 483.846ZM409.783 481.057C414.197 480.244 417.751 478.717 420.321 474.858C422.432 471.689 422.996 467.647 422.161 463.965C421.408 460.548 419.325 457.572 416.373 455.694C414.344 454.424 412.121 453.966 409.796 453.575C405.564 454.356 402.332 455.758 399.748 459.335C397.468 462.493 396.573 466.694 397.22 470.524C397.799 473.944 399.662 476.918 402.541 478.86C404.707 480.322 407.213 480.857 409.783 481.057Z"/>
	<path fill="#622B29" d="M601.426 392.134C608.089 392.27 614.816 392.273 621.475 392.013C622.096 429.41 622.081 466.816 621.43 504.213C621.321 504.337 621.226 504.476 621.103 504.586C618.007 507.365 606.087 505.931 602.053 505.704C600.515 491.3 601.095 476.179 601.072 461.704C601.006 438.513 601.124 415.322 601.426 392.134Z"/>
	<path fill="#622B29" d="M220.487 442.222L239.527 442.144C239.948 452.7 239.819 463.277 239.851 473.839C239.884 484.414 240.386 495.385 238.635 505.854C237.89 510.498 236.426 514.998 234.293 519.19C229.3 528.782 220.882 534.835 210.745 538.1C205.347 539.036 199.915 539.038 194.467 539.459C194.952 532.779 194.866 526.01 194.952 519.312C201.785 519.276 208.816 518.836 214.008 513.776C217.077 510.786 218.369 506.351 219.136 502.236C220.97 492.39 220.269 481.822 220.235 471.83C220.244 461.96 220.328 452.09 220.487 442.222Z"/>
	<path fill="#622B29" d="M395.047 568.222C399.746 568.54 404.2 569.505 408.295 571.931C413.522 575.028 417.08 579.924 418.479 585.828C420.377 593.833 417.851 600.396 413.654 607.063C415.194 609.014 416.976 610.715 418.738 612.461L413.688 618.103L408.065 612.416L403.85 614.219C402.149 614.731 400.442 615.15 398.678 615.38C392.205 616.284 385.644 614.51 380.509 610.467C375.462 606.483 372.263 600.608 371.656 594.206C371.071 587.936 372.999 581.336 377.062 576.499C381.775 570.888 387.993 568.828 395.047 568.222ZM401.687 606.033C399.953 604.152 398.2 602.319 396.715 600.229C396.156 599.023 395.813 598.244 396.373 596.927C396.884 595.724 397.85 594.917 399.092 594.519C400.676 594.011 402.806 594.688 404.177 595.529C405.691 596.458 407.372 598.741 408.501 600.117C410.26 594.97 411.572 590.348 409.013 585.123C407.29 581.605 404.21 579.137 400.528 577.898C397.685 576.941 394.822 576.77 391.855 577.018C387.219 578.867 383.483 581.227 381.479 586.062C379.89 589.994 380.027 594.413 381.856 598.24C383.682 602.105 387.027 605.041 391.096 606.351C394.844 607.54 397.963 606.852 401.687 606.033Z"/>
	<path fill="#622B29" d="M299.473 568.643C303.423 568.955 307.464 568.659 311.423 568.532C311.512 584.029 311.494 599.525 311.371 615.022C308.723 614.877 306.111 614.951 303.464 615.041C303.493 603.69 303.04 592.335 303.307 580.985C300.715 586.469 293.03 606.51 288.674 608.762C287.585 609.326 286.701 609.211 285.622 608.732C281.372 606.844 275.396 591.649 273.398 587.327C272.529 585.154 271.801 582.902 271.012 580.698C271.958 591.988 271.324 603.61 271.462 614.949C268.592 614.722 265.781 614.865 262.912 615.007C263.448 599.697 263.068 584.273 263.052 568.95C267.007 568.886 270.962 568.872 274.916 568.909C279.346 577.596 282.396 587 286.896 595.69C290.885 586.616 295.224 577.602 299.473 568.643Z"/>
	<path fill="#622B29" d="M589.019 568.582C595.485 569.144 602.05 568.261 608.51 568.975C612.756 569.444 617.473 570.806 620.171 574.363C622.284 577.149 622.862 580.891 622.289 584.289C621.366 589.764 617.48 593.225 613.161 596.231C617.307 602.42 621.425 608.604 625.31 614.961L616.054 615.003C611.028 610.635 607.297 603.172 603.846 597.467C601.909 597.555 599.965 597.561 598.027 597.598C597.953 603.251 597.549 609.436 598.52 615.004L589.115 614.992C588.77 599.544 589.039 584.038 589.019 568.582ZM598.01 589.529C602.93 589.644 606.951 590.226 611.275 587.525C612.554 585.904 614.472 583.489 614.114 581.265C613.899 579.928 613.08 578.978 611.946 578.315C608.165 576.107 602.971 576.422 598.746 576.737L598.093 577.285C597.842 581.357 597.965 585.452 598.01 589.529Z"/>
	<path fill="#622B29" d="M522.87 568.853C529.625 568.666 537.135 568.11 543.817 569.085C547.725 569.655 551.599 571.106 553.93 574.472C555.909 577.329 556.41 581.413 555.769 584.772C554.777 589.966 551.158 593.565 546.897 596.339L559.125 615.028C555.867 615.262 551.827 616.027 549.001 614.051C544.965 608.654 541.215 603.016 537.241 597.565L531.888 597.557C531.767 603.376 531.74 609.196 531.807 615.016L522.603 614.678C522.805 599.517 523.411 583.995 522.87 568.853ZM531.704 589.403C536.554 589.434 541.488 590.007 545.745 587.239C546.844 585.079 548.241 582.474 547.145 580.019C546.488 578.546 544.995 577.838 543.528 577.441C539.696 576.407 536.109 577.149 532.311 576.77C531.282 580.675 532.015 585.348 531.704 589.403Z"/>
	<path fill="#622B29" d="M487.71 568.75C491.224 568.639 494.829 568.397 498.309 569.006C502.497 569.74 506.662 571.563 509.063 575.238C510.927 578.092 511.459 581.446 510.593 584.739C509.278 589.734 505.509 593.39 501.171 595.908C505.474 602.141 509.103 609.081 513.818 614.992L504.095 614.955L499.824 608.769C497.399 604.875 494.433 601.179 491.747 597.452L486.084 597.591C485.972 603.396 486.068 609.22 486.08 615.026L477.472 614.799C477.026 599.669 476.667 583.899 477.529 568.805C480.919 568.857 484.319 568.776 487.71 568.75ZM486.074 589.414C490.906 589.488 495.553 589.971 499.737 587.09C500.794 585.262 502.079 583.138 501.747 580.924C501.553 579.63 500.805 578.842 499.736 578.173C496.41 576.093 489.703 576.888 485.877 576.966L486.074 589.414Z"/>
	<path fill="#622B29" d="M442.015 568.58C445.157 568.544 448.191 568.703 451.318 569.012C457.787 584.062 463.096 599.707 468.95 615.008L459.942 614.956C458.749 611.596 457.617 606.549 454.985 604.047C453.706 602.83 452.263 603.096 450.625 603.044L437.212 603.142C435.685 607.064 434.316 611.061 432.88 615.018L422.931 614.917C427.125 605.219 430.855 595.328 434.706 585.491C436.866 579.975 438.864 573.583 442.015 568.58ZM439.939 595.502L447.702 595.523L452.537 595.799C450.912 591.416 448.825 583.305 446.084 579.801C443.898 584.954 441.624 590.162 439.939 595.502Z"/>
	<path fill="#622B29" d="M165.251 568.664L174.048 568.925C180.383 584.31 185.895 600.194 192.706 615.345C189.698 615.39 186.689 615.395 183.68 615.359C182.315 612.048 181.446 606.67 178.974 604.1C177.804 602.884 176.949 603.08 175.385 602.959C170.743 603.003 166.101 602.981 161.459 602.894C159.728 606.904 158.139 610.985 156.494 615.032L147.148 615.384C150.306 605.942 154.015 596.627 157.608 587.342C160.01 581.134 162.206 574.579 165.251 568.664ZM163.58 595.82L169.875 595.834L176.19 595.847C174.567 591.065 172.828 583.2 169.697 579.343C167.644 584.826 165.52 590.297 163.58 595.82Z"/>
	<path fill="#622B29" d="M353.501 568.941C356.343 568.841 359.195 568.845 362.039 568.811L362.059 576.56C362.433 586.254 364.201 601.556 357.43 609.487C354.233 613.231 349.443 615.167 344.606 615.533C339.29 615.935 333.704 614.417 329.657 610.86C320.274 602.613 324.986 581.353 324.241 569.729L324.193 569.03L332.543 569C332.349 572.489 332.179 575.979 332.032 579.47C331.748 586.727 330.453 599.474 335.937 605.023C337.83 606.938 340.328 607.673 342.979 607.584C345.716 607.491 348.224 606.564 350.074 604.495C356.18 597.666 353.752 578.016 353.501 568.941Z"/>
	<path fill="#622B29" d="M208.544 568.772L209.199 569.194C209.475 581.77 209.047 594.474 209.09 607.069L229.54 607.003L229.484 615.018L223.676 615.015L200.984 615.159L201.013 568.902L208.544 568.772Z"/>
	<path fill="#622B29" d="M394.626 391.842C395.148 391.899 395.377 391.899 395.851 392.026C400.302 393.216 405.898 401.949 408.32 405.676C405.114 411.613 400.241 416.037 395.266 420.488C395.115 420.489 394.962 420.512 394.812 420.49C391.102 419.955 383.631 409.615 381.511 406.492C385.081 400.714 389.077 395.83 394.626 391.842Z"/>
	<path fill="#622B29" d="M422.382 392.87C423.186 392.889 423.925 392.954 424.704 393.175C429.191 394.451 434.724 402.542 436.749 406.458C432.839 411.587 428.86 416.284 424.133 420.683C423.588 420.793 423.01 420.688 422.457 420.65C417.319 417.667 413.154 411.274 409.776 406.514C413.13 401.25 417.399 396.629 422.382 392.87Z"/>
	<path fill="#622B29" d="M568.243 568.953L576.37 568.963C575.756 584.316 576.406 599.765 576.529 615.129C573.834 614.936 571.096 615.108 568.396 615.173C567.155 601.942 567.779 582.511 568.243 568.953Z"/>
	<path fill="#622B29" d="M233.653 590.683C239.997 591.084 246.491 590.85 252.852 590.87L252.548 598.005C246.205 597.931 239.86 597.957 233.517 598.085C233.476 595.607 233.542 593.157 233.653 590.683Z"/>
</svg>
