<?xml version="1.0" encoding="utf-8" ?>
<svg xmlns="http://www.w3.org/2000/svg" xmlns:xlink="http://www.w3.org/1999/xlink" width="157" height="157">
	<path fill="#642C2A" d="M33.6802 16.352C33.7587 16.3307 33.7688 16.3257 33.8622 16.3136C37.4041 15.8534 41.3802 16.2298 44.9605 16.2434L67.092 16.2842C78.6561 16.1974 90.2209 16.2484 101.784 16.4374C107.182 16.4926 112.629 16.0585 118.005 16.7853C121.224 17.2204 124.436 18.6101 126.994 20.5989C131.394 24.0194 133.414 29.5934 134.08 34.9677C134.831 41.0173 134.553 47.317 134.554 53.407L134.55 81.7998L134.562 104.271C134.566 109.057 134.849 114.092 134.16 118.835C133.577 122.844 132.121 126.839 129.601 130.046C125.6 135.138 119.754 137.149 113.562 137.867C113.49 137.884 113.467 137.892 113.384 137.901C108.731 138.435 103.597 138.111 98.8894 138.098L72.3222 138.001L47.6953 138.047C42.3007 138.056 36.744 138.332 31.3992 137.553C27.4741 136.98 23.714 135.615 20.5869 133.118C15.3771 128.959 13.2778 122.695 12.5754 116.307C11.9903 110.987 12.2397 105.517 12.251 100.169L12.2435 76.8736L12.2598 52.4293C12.2663 46.5556 12.01 40.5315 12.8666 34.7095C13.4292 30.8859 14.5744 27.243 17.0409 24.1924C21.2587 18.9759 27.2603 17.0145 33.6802 16.352ZM45.7655 99.0798C55.3191 79.0256 74.4605 56.584 91.1214 42.1417C94.1562 39.5109 97.3472 36.4807 100.812 34.4513C90.6901 46.867 79.1 58.1248 70.1076 71.4495C66.4564 76.7625 62.7628 82.0665 59.2756 87.4883C56.5381 91.7446 54.0033 96.1708 51.0575 100.286C50.0522 101.69 48.8114 103.628 47.2452 104.455C46.4139 104.893 45.4428 105.099 44.7587 105.775C38.489 111.975 34.9724 119.99 32.4386 128.255C40.5504 123.212 44.0882 122.204 47.8444 112.875C48.9341 110.169 49.9085 107.377 51.3509 104.833C55.2712 102.847 59.6942 101.804 63.8557 100.422C70.4924 98.2198 73.2526 95.9817 78.7128 91.9422C74.9389 92.613 70.5645 92.3462 66.7241 92.1478C83.1735 87.1683 91.2464 80.0671 99.7278 65.1324C96.6132 65.7752 90.8853 66.29 87.664 66.3854C96.3843 62.5689 102.735 58.6885 106.363 49.4094C108.954 42.7807 111.097 35.0263 111.438 27.8878C111.463 27.3654 111.625 26.2653 111.441 25.7973C111.299 25.4381 111.201 25.4466 110.862 25.3105C88.7827 30.4023 65.5462 46.4261 53.506 65.6477C46.5787 76.7069 45.4475 86.2729 45.7655 99.0798Z"/>
</svg>
