<?xml version="1.0" encoding="utf-8" ?><svg xmlns="http://www.w3.org/2000/svg" xmlns:xlink="http://www.w3.org/1999/xlink" width="464" height="367" viewBox="0 0 464 367"><path fill="#A855F7" d="M160.945 49.6829C175.486 45.6081 190.54 42.2592 205.131 38.2149C211.449 36.4639 217.822 35.1126 224.119 33.1197C223.934 41.2016 224.048 49.661 224.045 57.7662L224.054 102.816L224.045 137.223C224.044 143.302 223.891 150.277 224.116 156.272C224.312 160.515 224.234 165.15 224.232 169.434C214.044 171.486 208.131 171.683 198.733 166.676C191.494 162.819 186.756 163.69 178.764 163.477L159.593 162.793C155.267 162.666 148.27 161.897 144.654 161.974C146.486 163.049 148.334 163.813 150.248 164.696C162.34 170.277 174.033 177.006 187.109 180.083C193.697 181.632 200.389 182.953 206.984 184.497C209.427 185.075 213.264 185.908 215.506 186.79C217.511 189.596 218.481 191.718 220.098 194.526C224.466 202.114 224.764 206.61 224.062 215.278C224.107 222.834 224.11 230.39 224.072 237.946C224.083 240.831 223.977 245.215 224.181 247.926C218.803 245.912 209.19 242.305 203.546 241.364L203.424 241.771C207.138 244.452 210.757 246.824 214.241 249.865C225.712 259.712 224.549 256.344 224.204 271.79C215.715 272.489 196.172 276.797 188.933 280.664C200.004 280.542 213.127 280.624 224.221 280.926L224.162 284.671C224.158 287.23 224.184 289.788 224.242 292.346C214.253 292.199 210.82 291.716 201.194 288.816C203.19 290.526 205.485 291.806 207.355 293.201C213.74 297.965 216.66 297.086 224.247 296.969C223.983 308.132 224.409 319.571 224.139 330.878C217.145 330.773 210.054 331.441 203.162 330.502C191.529 328.918 184.01 321.975 175.669 314.33C169.633 308.688 162.138 303.574 157.289 296.808C151.878 289.259 152.711 278.005 152.149 269.118C151.797 263.545 151.532 257.995 151.281 252.427C150.98 245.738 151.42 238.714 148.723 232.409C145.45 224.843 138.246 221.165 131.986 216.495C128.452 213.859 125.322 210.768 122.62 207.33C117.541 200.868 117.801 190.615 117.597 182.512C117.439 176.222 116.44 160.136 117.916 154.557C119.483 148.638 134.585 137.055 139.262 132.778C142.456 129.856 147.304 126.194 149.124 121.691C153.25 111.483 151.397 96.0815 153.066 85.55C153.009 84.9005 153.056 84.3998 152.651 83.9192L152.315 84.0184C143.378 113.632 147.433 116.238 119.975 134.548C121.595 125.229 123.961 115.638 125.598 106.346C130.379 79.2105 132.101 60.1844 160.945 49.6829Z"/><defs><linearGradient id="gradient_0" gradientUnits="userSpaceOnUse" x1="147.28004" y1="73.233017" x2="238.66389" y2="130.7677"><stop offset="0" stop-color="#C084FC"/><stop offset="1" stop-color="#DDD6FE"/></linearGradient></defs><path fill="url(#gradient_0)" d="M160.945 49.6829C175.486 45.6081 190.54 42.2592 205.131 38.2149C211.449 36.4639 217.822 35.1126 224.119 33.1197C223.934 41.2016 224.048 49.661 224.045 57.7662L224.054 102.816L224.045 137.223C224.044 143.302 223.891 150.277 224.116 156.272C221.823 156.96 214.579 156.945 212.252 156.388C208.556 155.469 205.128 153.436 201.244 153.331C192.271 153.089 183.28 153.15 174.3 153.108L133.441 152.703C139.297 142.677 150.134 131.445 156.433 121.541C158.007 119.065 158.195 106.513 158.397 102.482L159.652 78.7126L160.627 60.5538C160.791 57.3563 161.139 52.8012 160.945 49.6829Z"/><path fill="#EDE9FE" d="M219.777 117.794C220.469 118.581 220.145 126.751 220.109 128.036C215.529 127.914 209.542 128.635 205.128 127.951C195.251 126.42 183.739 123.729 174.181 120.896C172.305 120.378 170.588 119.851 168.687 119.43L168.671 119.249C170.168 119.173 179.938 121.85 182.222 122.043C184.262 122.215 185.191 121.909 187.151 121.502C196.473 119.567 206.85 121.198 216.353 119.702C218.095 119.428 218.793 119.22 219.777 117.794Z"/><path fill="#EDE9FE" d="M219.416 149.263C219.867 149.63 219.877 149.815 220.159 150.362C220.034 151.019 220.092 150.801 219.513 151.352C218.086 151.872 217.218 151.755 215.688 151.711C215.32 151.646 215.48 151.734 215.224 151.42C215.987 150.298 218.139 149.709 219.416 149.263Z"/><path fill="#9333EA" d="M133.956 166.09C137.713 168.673 146.508 173.374 150.769 175.752C157.67 179.603 166.353 185.199 173.594 187.875C175.465 188.567 183.221 189.353 185.591 189.628C192.212 190.42 198.841 191.139 205.478 191.787C205.669 195.824 205.693 215.744 206.344 217.942C206.803 217.431 206.855 215.749 207.133 214.89C208.015 212.165 211.476 197.443 213.162 196.438C214.645 197.425 219.948 208.548 221.732 210.72C221.997 211.042 223.267 211.985 223.661 212.28C224.049 213.122 224.011 214.312 224.062 215.278C224.107 222.834 224.11 230.39 224.072 237.946C224.083 240.831 223.977 245.215 224.181 247.926C218.803 245.912 209.19 242.305 203.546 241.364L203.424 241.771C207.138 244.452 210.757 246.824 214.241 249.865C225.712 259.712 224.549 256.344 224.204 271.79C215.715 272.489 196.172 276.797 188.933 280.664C200.004 280.542 213.127 280.624 224.221 280.926L224.162 284.671C223.975 285.361 223.934 287.013 223.893 287.814C219.273 287.956 214.428 287.945 209.857 287.18C204.521 286.287 199.06 284.725 193.706 283.953C198.609 289.746 205.233 296.622 210.585 301.959C213.691 301.956 217.459 302.046 220.5 301.789C220.479 306.111 220.484 310.433 220.516 314.754C211.043 314.518 199.532 316.934 191.382 311.038C186.984 307.81 183.044 303.836 179.277 299.898C172.169 292.386 166.33 288.78 165.881 277.623C165.179 260.168 166.44 241.527 164.333 224.289C162.497 209.272 145.163 199.536 133.776 191.68C133.762 183.163 134.018 174.603 133.956 166.09Z"/><path fill="#A855F7" d="M206.291 251.779C205.67 249.692 201.898 242.819 203.034 241.187L203.546 241.364L203.424 241.771C207.138 244.452 210.757 246.824 214.241 249.865C212.846 251.156 209.233 251.093 207.204 251.278L206.291 251.779Z"/><path fill="#7C3AED" d="M206.291 251.779L207.204 251.278C207.569 252.246 208.229 253.719 208.214 254.677C207.54 254.447 207.001 253.234 206.674 252.568C206.544 252.306 206.417 252.043 206.291 251.779Z"/><defs><linearGradient id="gradient_1" gradientUnits="userSpaceOnUse" x1="181.61002" y1="210.62183" x2="190.5564" y2="310.98804"><stop offset="0" stop-color="#B794F6"/><stop offset="1" stop-color="#F3F4F6"/></linearGradient></defs><path fill="url(#gradient_1)" d="M197.361 208.652C197.579 208.671 197.683 208.777 197.904 208.905C198.054 210.384 195.966 213.532 195.21 214.941C191.718 221.604 184.599 230.63 184.662 238.467C184.761 250.685 183.026 264.406 184.686 276.464C185.491 282.309 191.721 289.347 195.195 293.931C199.353 299.417 204.037 304.864 208.604 310.058C204.099 309.871 201.015 309.573 196.711 308.318C195.633 307.877 194.681 307.373 193.809 306.593C190.636 303.759 187.764 300.33 184.881 297.164C181.685 293.653 178.293 290.093 175.346 286.398C174.005 284.719 173.079 282.831 172.099 280.961C170.47 277.848 169.944 275.473 170.046 271.946C170.205 266.46 170.476 260.949 170.684 255.456C170.986 247.488 171.01 239.486 171.461 231.527C171.536 230.214 171.764 229.169 172.193 227.939C173.832 226.259 177.575 223.573 179.483 222.077C185.337 217.488 191.485 213.209 197.361 208.652Z"/><defs><linearGradient id="gradient_2" gradientUnits="userSpaceOnUse" x1="170.71596" y1="176.83688" x2="172.72937" y2="217.03859"><stop offset="0" stop-color="#A855F7"/><stop offset="1" stop-color="#E9D5FF"/></linearGradient></defs><path fill="url(#gradient_2)" d="M142.233 177.85C147.388 178.776 160.85 188.636 166.994 190.783C172.593 192.74 175.605 192.618 181.301 193.364C188.007 194.266 194.72 195.111 201.439 195.899C197.79 199.413 193.234 202.713 189.174 205.804C184.123 209.407 178.676 214.006 173.625 217.826C167.574 211.074 158.526 204.17 151.916 197.751C148.953 194.872 145.903 192.72 143.355 189.32C142.936 185.86 142.409 181.306 142.233 177.85Z"/><path fill="#C4B5FD" d="M197.354 245.327C198.414 245.92 201.379 256.93 203.106 259.019C206.397 263 210.006 265.24 214.063 268.106C210.8 269.268 206.597 270.252 203.188 271.133C198.833 272.319 193.885 273.566 189.633 274.926C190.002 269.134 190.671 261.243 192.794 255.83C194.045 252.64 196.293 248.965 197.271 245.617L197.354 245.327Z"/><path fill="#C4B5FD" d="M214.824 208.371C216.499 209.3 221.435 216.945 221.724 218.925C222.749 225.936 222.284 233.762 222.236 240.902C220.59 240.091 218.855 239.336 217.179 238.58C214.188 237.185 210.213 235.597 207.032 234.817C207.759 232.815 208.577 229.434 209.225 227.231C211.042 220.93 212.909 214.643 214.824 208.371Z"/><path fill="white" d="M152.315 84.0184C152.654 82.0841 153.133 80.0068 153.872 78.1821C153.78 79.9376 153.445 83.8747 153.066 85.55C153.009 84.9005 153.056 84.3998 152.651 83.9192L152.315 84.0184Z"/><defs><linearGradient id="gradient_3" gradientUnits="userSpaceOnUse" x1="338.21405" y1="230.68764" x2="298.67188" y2="74.011391"><stop offset="0" stop-color="#0994FF"/><stop offset="1" stop-color="#0EDFFF"/></linearGradient></defs><path fill="url(#gradient_3)" d="M335.22 90.8267C333.648 89.5318 328.132 84.8462 326.651 84.4993C325.3 84.183 321.669 85.8442 318.754 83.63C316.92 82.3026 315.09 80.0428 314.747 77.7209C313.687 70.5312 322.445 64.6867 328.476 69.2289C331.365 71.4042 331.817 74.7263 332.226 77.9401C335.589 80.9239 339.394 83.4314 343.007 86.6999C344.023 88.3321 343.666 101.531 343.657 104.522C343.687 113.954 343.641 123.386 343.52 132.818L343.528 135.448C345.879 137.696 347.87 139.57 347.928 143.143C347.972 145.256 347.166 147.298 345.689 148.811C343.467 151.091 340.757 151.594 337.743 151.916C339.552 153.157 342.296 154.932 343.693 156.543C343.888 170.901 344.055 187.223 343.783 201.549C339.437 203.472 310.92 219.198 308.399 221.764C313.643 226.149 317.831 230.311 312.213 236.734C312.046 236.924 311.876 237.11 311.701 237.292C310.926 238.296 310.471 238.542 309.406 239.194L309.248 239.635C309.581 240.329 310.13 240.673 310.738 241.172C307.761 239.683 304.637 239.752 301.581 241.03C302.124 240.631 302.306 240.496 302.771 240.015L302.705 239.478C301.887 238.9 301.628 238.709 300.916 237.994L300.758 237.833C295.345 232.718 296.487 228.542 300.98 223.55L300.969 215.832C305.518 212.708 334.541 197.426 335.584 196.048C334.395 190.386 336.149 167.512 334.994 160.556C334.852 159.7 329.587 155.936 328.253 154.936L313.031 143.384C310.008 141.074 306.565 138.545 303.85 135.882C303.365 135.407 303.272 134.734 303.176 134.077C303.104 129.098 303.111 124.119 303.196 119.14C301.511 117.582 300.185 116.241 299.326 114.076C298.502 111.976 298.542 109.635 299.437 107.565C300.421 105.337 302.278 103.88 304.517 103.044C306.493 102.653 307.581 102.597 309.563 103.027C314.137 104.928 317.878 108.25 315.443 113.496C314.408 115.727 312.334 117.946 311.574 120.105C311.576 121.773 311.671 129.746 311.288 130.724C311.315 130.773 311.341 130.823 311.37 130.872C311.418 130.952 311.47 131.03 311.519 131.11C313.225 133.898 327.573 143.94 331.077 146.568C329.332 141.216 331.126 138.83 335.112 135.405C335.361 130.879 335.185 124.569 335.192 119.934L335.22 90.8267Z"/><path fill="#FEFEFE" d="M304.517 103.044C306.493 102.653 307.581 102.597 309.563 103.027C309.534 103.837 309.587 104.412 309.243 105.139C315.654 109.111 315.244 113.137 309.341 117.38C308.975 120.984 308.821 128.674 309.123 132.477C312.534 135.897 319.648 140.977 323.748 144.065C329.432 148.346 335.494 153.187 341.264 157.219C341.639 167.119 341.138 177.274 341.215 187.199C341.246 191.162 341.016 196.28 341.369 200.133C340.671 200.454 338.652 201.432 338.091 201.817C333.594 204.91 308.189 217.148 306.605 220.33C306.41 226.417 310.973 224.574 312.562 230.58C311.61 234.706 310.352 236.115 306.289 237.36C300.985 236.37 299.759 234.238 299.744 229.039C300.929 227.029 301.65 226.421 303.479 224.955L303.472 216.852C306.698 215.445 337.435 198.356 337.845 197.317C337.941 197.075 337.967 196.856 337.97 196.6C337.741 196.623 337.512 196.641 337.283 196.656C336.148 196.72 336.261 196.655 335.584 196.048C334.395 190.386 336.149 167.512 334.994 160.556C334.852 159.7 329.587 155.936 328.253 154.936L313.031 143.384C310.008 141.074 306.565 138.545 303.85 135.882C303.365 135.407 303.272 134.734 303.176 134.077C303.104 129.098 303.111 124.119 303.196 119.14C301.511 117.582 300.185 116.241 299.326 114.076C298.502 111.976 298.542 109.635 299.437 107.565C300.421 105.337 302.278 103.88 304.517 103.044Z"/><path fill="#11CDFE" d="M303.176 134.077C303.537 134.134 304.913 134.252 305.1 134.335C306.175 135.282 307.403 135.993 308.504 136.873C317.919 144.4 328.434 151.601 337.657 159.258C337.698 166.72 337.932 174.173 337.919 181.654C337.914 184.745 337.555 194.054 337.97 196.6C337.741 196.623 337.512 196.641 337.283 196.656C336.148 196.72 336.261 196.655 335.584 196.048C334.395 190.386 336.149 167.512 334.994 160.556C334.852 159.7 329.587 155.936 328.253 154.936L313.031 143.384C310.008 141.074 306.565 138.545 303.85 135.882C303.365 135.407 303.272 134.734 303.176 134.077Z"/><path fill="#11CDFE" d="M304.517 103.044C306.493 102.653 307.581 102.597 309.563 103.027C309.534 103.837 309.587 104.412 309.243 105.139C307.65 104.762 307.116 104.828 305.576 105.101C299.137 108.238 299.782 113.893 305.468 117.502C305.513 120.227 306.007 132.759 305.1 134.335C304.913 134.252 303.537 134.134 303.176 134.077C303.104 129.098 303.111 124.119 303.196 119.14C301.511 117.582 300.185 116.241 299.326 114.076C298.502 111.976 298.542 109.635 299.437 107.565C300.421 105.337 302.278 103.88 304.517 103.044Z"/><path fill="#0BA4FE" d="M304.85 228.418C306.234 227.804 307.854 228.419 308.48 229.797C309.107 231.175 308.506 232.801 307.134 233.44C305.744 234.088 304.093 233.477 303.458 232.082C302.823 230.686 303.448 229.04 304.85 228.418Z"/><path fill="#11CDFE" d="M306.606 108.473C310.367 108.401 311.3 111.829 308.023 114.062C305.944 113.892 304.255 112.842 304.692 110.539C304.893 109.476 305.772 109.045 306.606 108.473Z"/><path fill="#11CDFE" d="M343.007 86.6999C344.023 88.3321 343.666 101.531 343.657 104.522C343.687 113.954 343.641 123.386 343.52 132.818L343.226 133.066L342.96 132.924C342.458 129.92 342.868 121.676 342.911 118.127C343.034 107.904 342.28 96.8086 343.007 86.6999Z"/><path fill="#11CDFE" d="M311.288 130.724L310.978 130.614C310.966 129.52 310.974 129.262 310.678 128.175L310.75 129.51C309.942 127.942 309.734 121.559 310.757 120.098L311.574 120.105C311.576 121.773 311.671 129.746 311.288 130.724Z"/><path fill="white" d="M300.758 237.833C304.569 239.79 308.132 239.6 311.701 237.292C310.926 238.296 310.471 238.542 309.406 239.194L309.248 239.635C309.581 240.329 310.13 240.673 310.738 241.172C307.761 239.683 304.637 239.752 301.581 241.03C302.124 240.631 302.306 240.496 302.771 240.015L302.705 239.478C301.887 238.9 301.628 238.709 300.916 237.994L300.758 237.833Z"/><path fill="#FEFEFE" d="M322.667 70.0268C328.554 69.6172 329.905 73.6478 329.653 78.5729C333.086 81.7641 337.308 84.7943 340.965 87.8603C341.55 99.0183 340.726 111.651 341.043 122.904C341.168 127.328 340.803 132.702 341.298 137.009C342.221 138.007 344.613 139.8 345 140.925C347.257 147.475 341.214 150.997 335.719 148.703C331.02 144.98 332.599 139.799 337.524 137.095C337.277 121.476 337.705 105.72 337.443 90.0749C334.24 87.0231 330.98 84.4307 327.504 81.7213C323.635 82.9306 319.25 83.2483 317.431 78.6917C316.818 77.1479 316.876 75.4186 317.591 73.9195C318.719 71.5683 320.347 70.7762 322.667 70.0268Z"/><path fill="#0EDEFE" d="M322.321 73.63C323.723 73.0086 325.363 73.6325 325.998 75.0283C326.633 76.4241 326.025 78.0709 324.636 78.7194C323.227 79.377 321.552 78.7588 320.909 77.3437C320.265 75.9285 320.899 74.2599 322.321 73.63Z"/><path fill="#11CDFE" d="M338.37 140.644C339.767 140.226 341.245 140.988 341.716 142.369C342.187 143.749 341.483 145.255 340.122 145.779C339.193 146.136 338.143 145.957 337.386 145.312C336.628 144.667 336.285 143.659 336.49 142.685C336.695 141.712 337.416 140.928 338.37 140.644Z"/><path fill="#0981FE" d="M301.581 241.03C304.637 239.752 307.761 239.683 310.738 241.172C317.323 247.277 315.245 250.516 310.216 256.443C309.332 267.111 310.474 281.508 310.024 292.607C306.226 296.051 268.043 326.238 266.231 326.713C262.79 327.616 257.318 327.073 253.638 327.073C248.105 327.048 242.572 327.117 237.041 327.281L237.07 301.372C237.076 297.639 236.935 293.303 237.299 289.569C237.345 289.097 237.8 288.6 238.125 288.262C239.471 288.078 242.092 288 243.416 288.295C250.051 290.186 256.509 285.972 262.05 282.995C266.209 280.743 270.399 278.548 274.619 276.412C274.998 270.465 278.205 266.933 284.451 267.04C286.698 267.054 288.657 268.676 290.031 270.305C294.971 276.16 290.732 284.419 283.183 284.45C281.225 284.512 278.413 283.88 276.588 284.736C272.153 286.901 267.653 289.435 263.406 291.925C256.614 295.907 253.447 297.568 245.512 296.79C245.897 299.707 245.895 315.968 245.415 318.795C250.964 318.556 257.445 318.839 263.16 318.723C267.44 316.125 276.98 308.025 281.357 304.486C287.342 299.647 296.169 293.586 301.636 288.714C301.18 278.038 301.205 267.348 301.711 256.675C300.033 254.47 297.739 252.539 297.147 249.691C296.349 245.848 298.856 243.234 301.581 241.03Z"/><path fill="#FEFEFE" d="M305.074 242.28C309.62 241.93 311.328 244.597 312.503 248.457C311.664 251.923 310.648 253.042 307.688 254.853C307.288 260.175 307.442 267.59 307.467 273.022C307.494 278.803 307.341 285.94 307.662 291.629L280.152 313.007C275.536 316.623 270.171 321.255 265.468 324.479L239.52 324.484C239.683 313.561 239.544 301.929 239.473 290.996C245.168 291.006 250.312 291.673 255.562 289.1C262.865 285.52 270.021 281.743 277.089 277.719C277.038 276.322 277.204 274.86 277.327 273.461C278.743 271.722 279.388 271.162 281.333 270.062L281.545 269.993C289.976 267.349 292.729 280.01 284.713 282.227C282.764 282.766 280.929 281.881 279.348 280.841C271.262 284.081 260.798 292.03 252.181 294.465C250.192 295.028 245.263 294.804 243.076 294.54C242.924 303.362 242.918 312.186 243.058 321.008C250.472 320.856 257.177 321.179 264.692 320.735C266.425 319.65 268.905 317.547 270.6 316.198L280.68 308.243L294.826 297.27C297.796 294.968 301.284 292.384 304.013 289.875C304.349 278.108 304.042 266.512 303.935 254.741C302.117 253.54 300.713 252.384 299.963 250.247C299.428 248.76 299.547 247.116 300.291 245.721C301.34 243.773 303.095 242.939 305.074 242.28Z"/><path fill="#0BA4FE" d="M306.138 245.508C310.024 247.013 309.19 249.658 306.159 251.586C304.029 250.939 302.659 249.245 303.717 246.953C304.148 246.021 305.202 245.813 306.138 245.508Z"/><path fill="#0BA4FE" d="M282.927 273.133C283.932 272.978 284.939 273.392 285.546 274.207C286.153 275.022 286.259 276.106 285.823 277.024C285.387 277.941 284.479 278.543 283.464 278.587C282.008 278.651 280.756 277.565 280.613 276.114C280.47 274.663 281.487 273.354 282.927 273.133Z"/><defs><linearGradient id="gradient_4" gradientUnits="userSpaceOnUse" x1="270.09503" y1="275.60898" x2="253.88419" y2="239.09419"><stop offset="0" stop-color="#0883FF"/><stop offset="1" stop-color="#0EA0FF"/></linearGradient></defs><path fill="url(#gradient_4)" d="M274.68 235.644C274.608 232.421 276.124 228.55 279.152 227.379C292.198 222.338 297.734 241.039 284.369 243.913C282.807 244.249 280.787 243.601 279.353 242.992C276.155 243.954 271.731 246.551 268.631 248.035C260.966 251.702 252.829 256.404 244.991 259.516C244.947 261.686 244.408 271.385 245.897 272.69L246.244 272.55C246.721 271.838 246.536 270.509 246.768 269.616C248.685 262.236 253.488 262.31 259.708 263.73C262.697 262.158 270.553 258.287 273.094 256.319C274.25 252.851 274.461 250.55 277.765 248.39C283.545 244.612 291.565 249.957 290.952 256.493C290.279 263.653 284.524 265.993 277.921 263.887L277.009 263.95C276.692 264.592 266.042 269.74 264.509 270.687C263.788 272.902 263.259 274.928 261.744 276.759C258.437 280.757 254.06 280.935 249.934 278.18C249.252 283.429 248.815 286.271 243.416 288.295C242.092 288 239.471 288.078 238.125 288.262C234.713 287.466 232.453 283.711 232.194 280.397C231.875 276.318 234.364 274.238 236.789 271.402C237.112 266.459 236.902 259.883 236.782 254.882C239.821 252.93 246.864 249.584 250.247 247.888L274.68 235.644Z"/><path fill="#FEFEFE" d="M259.379 266.513C262.304 265.235 274.457 259.623 275.521 257.035C276.523 254.597 276.524 251.485 279.318 250.231C280.981 249.485 283.382 249.687 285.042 250.386C286.476 250.99 287.502 252.073 288.068 253.518C288.731 255.212 288.598 257.192 287.847 258.834C287.162 260.361 285.904 261.557 284.344 262.164C283.085 262.646 281.401 262.662 280.108 262.319C279.183 263.601 279.6 263.574 277.921 263.887L277.009 263.95C276.577 262.959 276.247 262.874 275.323 262.285C271.611 264.299 265.346 267.811 261.591 269.337C261.535 271.52 261.233 274.714 259.436 276.136C254.761 279.836 248.35 276.662 249.005 270.686C249.199 268.911 250.124 267.298 251.556 266.233C254.207 264.28 256.79 265.068 259.379 266.513Z"/><path fill="#0981FE" d="M275.323 262.285L277.837 260.932C278.422 261.311 279.513 262.068 280.108 262.319C279.183 263.601 279.6 263.574 277.921 263.887L277.009 263.95C276.577 262.959 276.247 262.874 275.323 262.285Z"/><path fill="#0BA4FE" d="M281.501 253.346C282.483 253.084 283.53 253.371 284.241 254.097C284.951 254.824 285.215 255.877 284.931 256.853C284.647 257.829 283.859 258.576 282.869 258.807C281.372 259.157 279.871 258.241 279.497 256.75C279.124 255.259 280.016 253.744 281.501 253.346Z"/><path fill="#0981FE" d="M254.896 268.514C258.827 268.435 258.335 272.558 255.725 274.525C252.056 273.506 250.798 270.165 254.896 268.514Z"/><path fill="#FEFEFE" d="M283.423 228.808C293.768 229.125 290.12 246.986 279.209 240.086C267.337 246.283 254.731 252.234 242.68 258.393C242.641 263.523 242.672 268.653 242.77 273.782C244.156 274.804 245.272 275.644 246.588 276.773C247.56 280.421 247.56 281.646 245.189 284.705C244.508 285.243 243.733 285.693 242.992 286.152L238.152 285.944C232.168 281.516 233.987 277.619 238.999 273.63C239.395 268.181 238.833 261.811 239.177 255.997C244.13 254.229 254.194 248.664 259.312 246.103C264.034 243.741 273.058 239.547 277.073 237.107C277.018 235.241 277.173 234.121 277.584 232.324C279.549 230.084 280.483 229.371 283.423 228.808Z"/><path fill="#0BA4FE" d="M282.246 232.664C283.183 232.235 284.279 232.345 285.111 232.953C285.944 233.56 286.383 234.57 286.259 235.594C286.135 236.617 285.468 237.493 284.514 237.885C283.081 238.474 281.44 237.808 280.822 236.386C280.204 234.965 280.837 233.311 282.246 232.664Z"/><path fill="#0981FE" d="M239.885 277.367C240.823 276.991 241.89 277.15 242.677 277.783C243.464 278.416 243.849 279.424 243.684 280.42C243.518 281.416 242.829 282.246 241.879 282.591C240.445 283.112 238.857 282.386 238.313 280.96C237.768 279.534 238.468 277.934 239.885 277.367Z"/><path fill="#0BA4FE" d="M298.459 178.336C309.9 177.629 310.904 194.605 299.363 195.818C296.788 196.089 294.73 194.918 292.868 193.285C288.087 196.004 276.323 199.729 270.74 201.761L255.092 207.485C251.97 208.597 248.124 210.027 244.926 210.701C245.294 217.346 244.916 225.632 245.052 232.532C250.061 236.736 251.76 242.334 246.375 247.078C240.644 251.22 233.178 248.357 232.139 241.149C231.646 237.727 234.428 234.914 236.552 232.503C236.769 223.45 236.343 214.33 236.64 205.032C240.664 203.359 246.205 201.588 250.398 200.111L274.334 191.609C278.456 190.142 286.23 187.506 289.954 185.594C292.638 181.41 292.876 179.108 298.459 178.336Z"/><path fill="#FEFEFE" d="M297.777 180.774C302.713 180.765 304.53 182.873 305.473 187.458C304.083 192.022 302.171 193.705 297.276 193.472C296.187 192.764 294.828 191.703 293.756 190.916C291.316 191.672 288.866 192.624 286.452 193.476C271.818 198.638 257.426 204.237 242.658 209.023C242.752 217.515 242.406 225.413 242.734 234.079C244.477 235.36 245.25 235.793 246.695 237.42C247.315 240.082 247.411 241.335 246.369 243.879C245.138 245.586 243.192 246.759 241.068 246.859C239.326 246.935 237.629 246.301 236.363 245.102C232.067 240.957 235.764 236.833 238.982 233.97C239.196 225.202 238.997 215.495 238.941 206.673C240.966 206.209 245.138 204.621 247.189 203.926C253.437 201.809 259.623 199.367 265.813 197.107L282.531 191.169C285.59 190.098 289.272 188.929 292.21 187.664C293.417 183.445 293.636 182.503 297.777 180.774Z"/><path fill="#0BA4FE" d="M298.258 184.391C299.231 184.134 300.266 184.421 300.969 185.141C301.672 185.861 301.934 186.904 301.654 187.87C301.375 188.837 300.597 189.579 299.618 189.813C298.129 190.168 296.631 189.259 296.258 187.774C295.885 186.289 296.777 184.781 298.258 184.391Z"/><path fill="#0BA4FE" d="M240.083 237.894C241.52 237.447 243.051 238.224 243.539 239.648C244.026 241.071 243.293 242.624 241.884 243.153C240.936 243.508 239.87 243.32 239.101 242.662C238.331 242.004 237.98 240.98 238.185 239.988C238.389 238.996 239.116 238.194 240.083 237.894Z"/><path fill="#FEFEFE" d="M247.872 79.1804C245.033 80.1347 240.933 81.8051 238.042 80.7832C233.603 79.2133 231.19 74.2962 232.709 69.8703C233.514 67.495 235.245 65.5463 237.51 64.4683C243.831 61.5184 247.533 66.3094 249.885 71.4585C251.321 72.2118 253.204 72.9875 254.713 73.658C255.273 73.9216 256.446 74.3869 256.479 74.9214C257.129 85.3879 256.718 100.123 256.783 110.275C258.236 112.363 275.2 129.21 276.829 129.87C290.737 128.8 291.425 145.482 279.324 146.987C272.623 147.821 270.504 141.634 270.188 135.931C265.938 130.492 259.193 125.249 254.522 120.002C252.43 117.653 250.434 115.851 248.522 113.262C248.097 110.711 248.33 106.443 248.268 103.781C248.082 95.8355 248.674 86.9937 247.872 79.1804Z"/><defs><linearGradient id="gradient_5" gradientUnits="userSpaceOnUse" x1="295.32968" y1="120.40271" x2="224.49843" y2="90.164276"><stop offset="0" stop-color="#07B9FF"/><stop offset="1" stop-color="#10DCFF"/></linearGradient></defs><path fill="url(#gradient_5)" d="M247.872 79.1804C245.033 80.1347 240.933 81.8051 238.042 80.7832C233.603 79.2133 231.19 74.2962 232.709 69.8703C233.514 67.495 235.245 65.5463 237.51 64.4683C243.831 61.5184 247.533 66.3094 249.885 71.4585C251.321 72.2118 253.204 72.9875 254.713 73.658C254.48 74.4976 254.436 74.8832 253.913 75.5758C251.45 75.0277 249.663 74.4305 247.688 72.8304C246.118 68.573 244.107 64.5526 238.571 66.5993C237.129 67.1314 235.954 68.2086 235.299 69.5988C233.908 72.5237 234.826 76.8485 237.928 78.2536C241.043 79.6645 243.811 78.0764 246.371 76.4599L250.519 78.3809C250.786 85.9072 250.55 93.4081 250.51 100.935C250.495 103.733 250.331 106.598 250.498 109.388C250.56 110.438 250.678 111.613 251.141 112.567C252.641 115.658 269.231 131.434 273.041 135.435C272.681 137.577 272.368 140.736 273.882 142.537C279.693 149.457 290.913 139.292 282.625 133.395C281.371 132.502 280.186 132.187 278.627 131.77C277.778 131.684 277.75 131.681 277.052 131.218C276.672 130.378 276.69 130.716 276.829 129.87C290.737 128.8 291.425 145.482 279.324 146.987C272.623 147.821 270.504 141.634 270.188 135.931C265.938 130.492 259.193 125.249 254.522 120.002C252.43 117.653 250.434 115.851 248.522 113.262C248.097 110.711 248.33 106.443 248.268 103.781C248.082 95.8355 248.674 86.9937 247.872 79.1804Z"/><path fill="#11CDFE" d="M254.713 73.658C255.273 73.9216 256.446 74.3869 256.479 74.9214C257.129 85.3879 256.718 100.123 256.783 110.275C258.236 112.363 275.2 129.21 276.829 129.87C276.69 130.716 276.672 130.378 277.052 131.218C277.75 131.681 277.778 131.684 278.627 131.77C277.535 132.002 276.569 132.616 275.572 133.153C271.548 128.461 266.282 123.65 261.953 119.124C259.787 116.86 255.931 113.436 254.348 110.859C253.769 103.239 254.498 93.7503 254.262 85.9516C254.173 83.0012 254.525 78.3593 253.913 75.5758C254.436 74.8832 254.48 74.4976 254.713 73.658Z"/><path fill="#11CDFE" d="M278.634 135.497C282.615 135.655 282.679 139.464 279.489 141.588C279.25 141.521 279.014 141.448 278.779 141.369C275.354 140.205 275.143 137.073 278.634 135.497Z"/><path fill="#0EDEFE" d="M240.512 69.4586C244.749 70.0609 244.518 73.3332 241.508 75.6746C240.473 75.4797 239.438 75.1181 238.75 74.2714C238.262 73.6808 238.067 72.9023 238.217 72.1516C238.488 70.7343 239.405 70.1582 240.512 69.4586Z"/><path fill="#11CDFE" d="M239.903 38.0182C245.378 37.6568 247.934 41.0878 250.072 45.6083C252.735 46.633 269.322 51.9677 269.912 53.0345C271.493 55.8932 270.473 74.3605 270.66 78.7622C270.763 81.1908 270.164 87.1852 271 89.1501C271.55 90.4451 275.29 94.1466 276.431 95.427C283.316 91.5695 291.387 102.654 285.794 108.7C283.438 111.247 282.318 111.766 278.887 112.204C271.904 111.476 270.433 106.922 270.26 100.792C268.885 99.1386 267.332 97.632 265.822 96.1035C264.716 94.9854 263.228 93.6859 262.693 92.1783C261.542 88.9314 262.297 64.1966 262.332 58.5406C257.404 56.9628 251.65 55.1767 246.997 53.0846C243.921 55.4206 240.892 56.7344 237.155 54.7264C234.967 53.5255 233.345 51.5056 232.645 49.1101C230.935 43.4214 234.73 39.5285 239.903 38.0182Z"/><path fill="#FEFEFE" d="M239.513 40.3105C244.601 39.794 246.323 42.5166 247.664 46.8824C253.894 49.694 261.712 51.9432 268.336 54.5395C267.968 62.0999 268.039 70.346 268.045 77.9324C268.048 81.0686 268.109 87.2765 268.561 90.1491C269.774 91.8939 274.345 96.2976 276.083 98.0167C279.886 96.6233 281.969 97.5625 284.766 100.289C286.068 105.511 284.26 109.863 278.292 109.895C272.919 108.269 272.073 105.665 273.272 100.447C270.55 97.8156 267.505 94.513 264.834 91.7576C264.33 89.1803 264.48 82.6264 264.499 79.8C264.551 72.1408 264.625 64.5845 264.549 56.9189C259.699 55.3622 250.917 52.4918 246.437 50.4634C244.01 52.4121 241.713 54.1307 238.445 52.7545C236.91 52.1014 235.702 50.8591 235.092 49.3068C233.533 45.3902 235.74 41.7388 239.513 40.3105Z"/><path fill="#11CDFE" d="M240.232 44.1469C241.661 43.7665 243.135 44.5816 243.573 45.9939C244.011 47.4062 243.256 48.9123 241.862 49.4067C240.91 49.7448 239.848 49.534 239.097 48.8574C238.346 48.1807 238.025 47.147 238.262 46.1641C238.499 45.1812 239.255 44.4069 240.232 44.1469Z"/><path fill="#11CDFE" d="M277.928 100.677C282.68 100.662 282.514 103.539 279.706 106.381C276.818 107.07 274.976 103.386 277.928 100.677Z"/><defs><linearGradient id="gradient_6" gradientUnits="userSpaceOnUse" x1="278.04514" y1="181.33746" x2="272.24496" y2="165.77019"><stop offset="0" stop-color="#0E92FF"/><stop offset="1" stop-color="#0CC9FF"/></linearGradient></defs><path fill="url(#gradient_6)" d="M307.034 152.801C311.471 152.362 315.948 153.578 317.602 158.178C318.375 160.355 318.226 162.753 317.19 164.818C314.537 170.213 309.287 170.815 304.309 168.261C301.384 169.102 297.074 170.832 294.071 171.919L276.905 178.005L259.073 184.389C256.321 185.369 252.315 186.56 249.763 187.703C248.118 191.844 246.975 193.844 242.555 195.004C229.997 195.869 228.679 179.157 240.437 177.483C242.55 177.182 244.984 178.38 246.583 179.755C249.541 178.951 253.162 177.559 256.136 176.503L273.204 170.395C281.273 167.515 293.064 163.798 300.606 160.578C301.722 156.302 303.069 154.667 307.034 152.801Z"/><path fill="#FEFEFE" d="M309.035 155.017C310.393 154.916 311.834 155.349 312.989 156.049C314.324 156.86 315.28 158.17 315.646 159.689C316.778 164.355 312.458 168.719 307.772 167.24C306.372 166.798 305.723 166.372 304.476 165.561C293.438 169.825 281.168 173.704 269.996 177.927C265.006 179.813 252.483 184.622 247.845 185.713C246.397 189.473 245.503 191.611 241.514 192.873C237.832 192.977 235.083 190.582 234.7 186.939C234.517 185.307 235.006 183.671 236.056 182.408C237.116 181.108 238.662 180.3 240.334 180.171C242.792 179.967 244.502 181.066 246.262 182.558C250.982 180.569 256.342 178.99 261.185 177.154C274.923 171.946 289.502 167.457 303.147 162.217C303.787 157.436 304.39 156.352 309.035 155.017Z"/><path fill="#11CDFE" d="M308.396 158.656C309.3 158.23 310.364 158.327 311.176 158.911C311.988 159.495 312.419 160.473 312.302 161.466C312.185 162.459 311.539 163.31 310.614 163.69C309.234 164.256 307.654 163.619 307.052 162.254C306.451 160.889 307.047 159.293 308.396 158.656Z"/><path fill="#0BA4FE" d="M240.427 183.467C244.318 183.202 244.399 187.774 241.589 189.34C237.927 188.129 236.552 185.697 240.427 183.467Z"/><path fill="#FEFEFE" d="M237.502 147.665C235.16 146.408 233.27 144.719 232.491 142.086C231.886 140.043 232.127 137.843 233.159 135.979C234.376 133.773 236.644 131.969 239.075 131.299C241.117 130.729 243.304 131.007 245.139 132.071C248.886 134.232 249.612 137.983 249.609 141.944C252.358 144.743 255.819 147.73 258.761 150.39C262.415 150.235 264.793 150.481 267.577 153.104C272.917 158.74 269.242 166.914 262.242 167.716C260.043 167.982 257.831 167.341 256.114 165.942C252.815 163.229 253.076 160.272 252.659 156.447C250.612 153.691 246.529 150.374 243.809 148.061C240.901 148.399 240.294 148.435 237.502 147.665Z"/><path fill="#11CDFE" d="M237.502 147.665C235.16 146.408 233.27 144.719 232.491 142.086C231.886 140.043 232.127 137.843 233.159 135.979C234.376 133.773 236.644 131.969 239.075 131.299C241.117 130.729 243.304 131.007 245.139 132.071C248.886 134.232 249.612 137.983 249.609 141.944C252.358 144.743 255.819 147.73 258.761 150.39C262.415 150.235 264.793 150.481 267.577 153.104L266.292 154.578C263.154 152.257 262.391 152.624 258.574 153C255.026 151.069 249.809 145.506 246.843 142.445L247.67 139.713C246.911 137.466 246.071 135.499 243.907 134.266C242.444 133.433 240.702 133.243 239.094 133.74C235.772 134.797 233.587 138.733 234.996 142.066C235.917 144.245 237.687 145.294 239.754 146.211C239.017 147.163 238.727 147.595 237.502 147.665Z"/><path fill="#0BA4FE" d="M239.754 146.211C241.847 146.337 242.324 146.184 244.179 145.168C248.08 148.732 251.856 152.342 255.802 155.86C254.993 159.828 254.886 164.564 260.128 165.411C261.915 165.694 263.741 165.249 265.197 164.175C266.607 163.157 267.541 161.608 267.781 159.885C268.033 157.975 267.373 156.127 266.292 154.578L267.577 153.104C272.917 158.74 269.242 166.914 262.242 167.716C260.043 167.982 257.831 167.341 256.114 165.942C252.815 163.229 253.076 160.272 252.659 156.447C250.612 153.691 246.529 150.374 243.809 148.061C240.901 148.399 240.294 148.435 237.502 147.665C238.727 147.595 239.017 147.163 239.754 146.211Z"/><path fill="#11CDFE" d="M240.284 136.737C244.233 136.825 245.018 140.359 241.56 142.754C238.147 142.835 236.746 138.706 240.284 136.737Z"/><path fill="#11CDFE" d="M260.387 156.638C261.312 156.225 262.387 156.341 263.202 156.941C264.018 157.541 264.449 158.533 264.33 159.538C264.212 160.544 263.562 161.409 262.629 161.802C261.207 162.403 259.567 161.746 258.952 160.33C258.337 158.914 258.977 157.267 260.387 156.638Z"/><path fill="#FEFEFE" d="M303.369 75.6882C300.602 73.4251 298.395 71.0834 298.639 67.2187C298.801 64.9012 299.89 62.7468 301.66 61.2413C310.154 53.9024 323.11 66.5325 311.577 75.548C311.566 78.5357 311.74 81.8468 311.47 84.7715C311.75 85.5148 312.563 86.4858 313.19 87.0481C317.824 91.1989 316.761 98.253 310.792 100.72C303.754 103.629 296.95 97.8502 299.188 90.1429C300.274 87.8294 301.238 86.7311 303.262 85.2473C303.347 82.1033 303.336 78.8425 303.369 75.6882Z"/><path fill="#0EDEFE" d="M303.369 75.6882C300.602 73.4251 298.395 71.0834 298.639 67.2187C298.801 64.9012 299.89 62.7468 301.66 61.2413C310.154 53.9024 323.11 66.5325 311.577 75.548C311.566 78.5357 311.74 81.8468 311.47 84.7715C310.144 85.5257 309.877 84.2714 309.283 86.6188C309.217 84.025 308.409 74.814 310.509 73.0651C313.836 70.2958 313.863 69.7237 313.476 65.2822C311.613 62.6636 310.602 62.0431 307.478 61.2706C299.403 63.4533 298.669 70.3284 305.53 74.2367C305.543 78.217 305.452 82.7896 305.591 86.7287C301.698 89.3855 302.979 88.8614 300.91 91.9807L300.654 91.3232C300.939 90.7977 300.939 90.7815 301.088 90.1998C300.793 89.5718 300.827 89.3442 300.339 89.0595L300.391 89.8984C299.867 90.4385 299.839 90.5337 299.48 91.2196L299.382 91.4111C299.162 90.9367 299.199 90.6607 299.188 90.1429C300.274 87.8294 301.238 86.7311 303.262 85.2473C303.347 82.1033 303.336 78.8425 303.369 75.6882Z"/><path fill="#11CDFE" d="M309.283 86.6188C309.877 84.2714 310.144 85.5257 311.47 84.7715C311.75 85.5148 312.563 86.4858 313.19 87.0481C317.824 91.1989 316.761 98.253 310.792 100.72C303.754 103.629 296.95 97.8502 299.188 90.1429C299.199 90.6607 299.162 90.9367 299.382 91.4111L299.48 91.2196C299.839 90.5337 299.867 90.4385 300.391 89.8984L300.339 89.0595C300.827 89.3442 300.793 89.5718 301.088 90.1998C300.939 90.7815 300.939 90.7977 300.654 91.3232L300.91 91.9807C300.92 92.285 300.936 92.589 300.958 92.8927C301.102 94.8782 301.919 96.7282 303.476 98.0101C304.703 99.0234 306.282 99.5095 307.867 99.3621C309.592 99.2014 311.175 98.3409 312.248 96.9812C313.334 95.5953 313.803 93.8247 313.547 92.0829C313.125 89.3563 311.315 88.1144 309.283 86.6188Z"/><path fill="#0EDEFE" d="M306.486 65.1364C307.967 64.6785 309.539 65.5111 309.993 66.9942C310.447 68.4772 309.611 70.047 308.126 70.497C306.648 70.9453 305.085 70.1124 304.633 68.6349C304.18 67.1573 305.009 65.5925 306.486 65.1364Z"/><path fill="#11CDFE" d="M306.564 90.3903C308.012 89.9671 309.529 90.7961 309.954 92.243C310.379 93.6899 309.553 95.2079 308.106 95.6354C306.657 96.0639 305.135 95.235 304.709 93.785C304.283 92.3351 305.114 90.8144 306.564 90.3903Z"/><path fill="#11CDFE" d="M280.945 52.0488C280.994 52.0451 281.044 52.0414 281.093 52.0376C283.576 51.9142 286.001 52.8065 287.812 54.5092C289.398 56.0264 290.315 58.1124 290.361 60.3069C290.419 63.7959 288.289 66.04 286.076 68.3529C285.876 71.4299 285.855 74.5159 286.014 77.5953C287.881 79.435 289.526 81.021 290.219 83.6771C290.739 85.6365 290.454 87.7226 289.427 89.4704C287.876 92.0817 285.497 93.0433 282.708 93.7362C277.176 94.2959 272.905 91.0382 272.999 85.1554C273.051 81.9703 275.53 79.3795 277.752 77.343C277.757 74.566 277.788 71.795 277.638 69.0216C276.332 66.7247 274.194 65.8279 273.37 62.6055C272.837 60.5095 273.178 58.2869 274.316 56.4474C275.96 53.7344 278.03 52.771 280.945 52.0488Z"/><path fill="#FEFEFE" d="M280.28 54.5437C284.605 54.2779 288.522 56.2643 287.922 61.3904C287.607 64.072 285.628 65.5646 283.605 67.0624C283.416 71.1246 283.432 75.1937 283.653 79.2543C285.381 80.3904 286.743 81.1674 287.624 83.1185C288.278 84.5985 288.296 86.2821 287.674 87.776C286.775 89.902 285.05 90.8858 283.025 91.6521C277.458 92.1571 273.123 87.3583 276.61 82.1064C277.368 80.9656 278.852 79.9124 279.951 79.0402C280.054 75.126 279.984 71.2091 279.742 67.301C278.048 66.0248 276.499 64.8899 275.792 62.7966C274.44 58.7963 276.626 55.8605 280.28 54.5437Z"/><path fill="#0EDEFE" d="M281.019 58.1057C282.475 57.6829 284.001 58.5127 284.437 59.9654C284.874 61.4182 284.058 62.9514 282.61 63.4016C281.142 63.8577 279.584 63.029 279.141 61.5568C278.699 60.0846 279.542 58.5343 281.019 58.1057Z"/><path fill="#0EDEFE" d="M281.025 82.6203C282.461 82.2262 283.949 83.049 284.379 84.4746C284.809 85.9001 284.023 87.4082 282.609 87.8732C281.662 88.1845 280.621 87.9579 279.889 87.2814C279.157 86.6049 278.85 85.5847 279.086 84.6165C279.322 83.6482 280.064 82.8841 281.025 82.6203Z"/></svg>