<svg xmlns="http://www.w3.org/2000/svg" width="475" height="429"><path d="M239 35h2l1.126 2.025q2.622 4.708 5.249 9.413l1.912 3.434c2.9 5.188 5.816 10.355 8.904 15.433l1.419 2.338a318 318 0 0 0 2.632 4.228c2.821 4.616 2.821 4.616 2.525 7.017-.922 2.54-2.108 4.773-3.435 7.128l-1.685 3.003-1.834 3.231-1.903 3.373c-5.362 9.477-10.837 18.886-16.344 28.28A2884 2884 0 0 0 228.5 143a4576 4576 0 0 1-14.5 25c-6.747 11.547-13.433 23.129-20.109 34.718Q189.198 210.86 184.5 219l-3.75 6.5-7.5 13-1.876 3.252-3.738 6.478q-4.785 8.291-9.562 16.586C151.107 276.912 144.11 288.988 137 301l2.017.48c9.174 2.233 18.21 4.866 27.264 7.536l5.044 1.48q6.708 1.968 13.412 3.941 12.49 3.673 24.982 7.336l2.775.815a5114 5114 0 0 0 35.412 10.264l3.745 1.07q8.418 2.406 16.843 4.786l5.818 1.66c.867.24 1.734.482 2.627.731 5.834 1.674 5.834 1.674 8.061 3.901H60c3.958-7.256 7.933-14.493 12-21.687l1.694-2.998c4.553-8.033 9.195-16.012 13.863-23.98 4.533-7.749 9-15.535 13.443-23.335a2821 2821 0 0 1 16.71-28.922c4.482-7.664 8.895-15.365 13.29-23.078a2825 2825 0 0 1 16.71-28.922c4.482-7.664 8.895-15.365 13.29-23.078a2825 2825 0 0 1 16.71-28.922c4.482-7.664 8.895-15.365 13.29-23.078q8.264-14.5 16.7-28.902c4.594-7.855 9.11-15.753 13.613-23.66C236.867 37.133 236.867 37.133 239 35" fill="#246b66"/><path d="M276 201c4.29 1.43 5.198 4.57 7.188 8.375 4.307 7.995 8.844 15.828 13.5 23.625 8.537 14.325 16.862 28.768 25.166 43.23a2946 2946 0 0 0 23.095 39.524c5.112 8.609 10.096 17.285 15.042 25.99 6.33 11.134 12.832 22.16 19.388 33.162L383 381l2.019 3.375 1.946 3.281 1.765 2.963C390 393 390 393 390 395H32c1.52-4.562 2.865-7.803 5.23-11.852l1.936-3.332 2.022-3.441 1.962-3.371c3.605-6.187 3.605-6.187 4.758-7.98 1.224-2.106 1.224-2.106 1.975-4.958 1.533-4.012 2.88-6.2 6.117-9.066 7.706-2.423 16.418-1.51 24.386-1.362q3.8.005 7.6-.006 8.175-.003 16.35.1c7.88.097 15.758.128 23.639.143 12.785.026 25.57.106 38.355.22 12.418.11 24.835.195 37.252.246l2.32.01 11.527.045c31.858.124 63.714.337 95.571.604l-1-3.568c-2.318-8.287-4.613-16.57-6.644-24.932l-.672-2.739q-1.074-4.38-2.141-8.761l-1.535-6.27q-1.603-6.545-3.2-13.09-2.008-8.227-4.023-16.45c-6.05-24.702-12.028-49.418-17.785-74.19" fill="#75b347"/><path d="M268 85h2l1.063 1.914c7.647 13.753 15.418 27.42 23.375 40.996a3035 3035 0 0 1 11 18.965l5.67 9.843q4.694 8.142 9.392 16.282l5.625 9.75 82.5 143 3.748 6.496a25831 25831 0 0 1 9.412 16.324l1.894 3.287q1.868 3.24 3.733 6.483a1615 1615 0 0 0 9.643 16.523l1.974 3.345q1.87 3.165 3.756 6.318l1.68 2.845 1.488 2.498C447 392 447 392 447 395h-50l-6.125-11a1588 1588 0 0 0-16.483-28.768 2254 2254 0 0 1-13.33-23.107A5307 5307 0 0 0 345.5 305a6068 6068 0 0 1-16.51-28.77A5389 5389 0 0 0 314.5 251a5737 5737 0 0 1-15.5-27 7704 7704 0 0 0-16.125-28.125l-1.828-3.176A1047 1047 0 0 0 270 174c-5.806 3.441-10.188 7.996-14.875 12.813-4.927 5.04-9.878 9.923-15.227 14.514-3.114 2.745-5.996 5.708-8.898 8.673-4.164 4.212-8.353 8.273-12.879 12.098-2.992 2.684-5.795 5.544-8.621 8.402-3.39 3.428-6.752 6.823-10.437 9.938-3.906 3.308-7.466 6.927-11.063 10.562-4.136 4.18-8.285 8.218-12.79 12.004-3.996 3.608-7.72 7.507-11.464 11.375l-1.77 1.805-1.59 1.642C159 279 159 279 157 279c1.345-3.544 2.912-6.808 4.766-10.113l1.675-2.994 1.809-3.205 1.889-3.36c5.341-9.47 10.805-18.866 16.302-28.246 9.332-15.926 18.492-31.952 27.636-47.986a2790 2790 0 0 1 15.636-27.023c4.456-7.622 8.85-15.278 13.225-22.948 5.4-9.468 10.81-18.93 16.25-28.375l1.853-3.226Q260.504 97.252 263 93l1.463-2.506c1.121-1.867 2.32-3.687 3.537-5.494" fill="#196bb1"/></svg>